<?xml version="1.0" encoding="utf-8"?>
<svg xml:space="preserve" viewBox="0 0 100 100" y="0" x="0" xmlns="http://www.w3.org/2000/svg" id="圖層_1" version="1.1" style="height: 100%; width: 100%; background: #F4F4F4; shape-rendering: auto; animation-play-state: running; animation-delay: 0s;" width="198px" height="198px"><g class="ldl-scale" style="transform-origin: 50% 50%; transform: rotate(0deg) scale(0.9, 0.9); animation-play-state: running; animation-delay: 0s;"><g class="ldl-ani" style="animation-play-state: running; animation-delay: 0s;"><g class="ldl-layer" style="animation-play-state: running; animation-delay: 0s;"><g class="ldl-ani" style="transform-origin: 50px 50px; transform: scale(0.91); animation: 0.675676s linear -0.422297s infinite normal forwards running breath-6f37c935-e482-4f7a-a840-1a6ff0867b7d;"><path fill="#d1d1d1" d="M77.79 54.373c-2.457-3.393-5.036-4.748-6.744-5.645-1.005-.528-2.169-.862-3.408-.986 2.837-3.47 4.521-7.783 4.521-12.452 0-3.843-1.721-7.61-1.918-8.026-.994-2.112-3.203-3.725-5.53-4.15.263-.68.414-1.417.414-2.189v-9.847A6.085 6.085 0 0 0 59.047 5H39.591a6.086 6.086 0 0 0-6.079 6.079v9.846c0 .829.168 1.619.469 2.339-2.08.582-3.981 2.085-4.882 4-.196.417-1.917 4.183-1.917 8.026 0 4.887 1.848 9.381 4.928 12.929-1.61.066-3.114.474-4.372 1.196-1.401.805-3.321 1.908-5.528 4.957-1.626 2.247-3.389 6.866.066 20.975a147.273 147.273 0 0 0 4.117 13.684c1.237 3.402 4.9 5.968 8.52 5.968h30.173c3.619 0 7.283-2.566 8.519-5.968a147.09 147.09 0 0 0 4.116-13.684c3.458-14.108 1.695-18.726.069-20.974z" style="fill: rgb(209, 209, 209); animation-play-state: running; animation-delay: 0s;"></path></g></g><g class="ldl-layer" style="animation-play-state: running; animation-delay: 0s;"><g class="ldl-ani" style="transform-origin: 50px 50px; transform: scale(0.91); animation: 0.675676s linear -0.506757s infinite normal forwards running breath-6f37c935-e482-4f7a-a840-1a6ff0867b7d;"><circle fill="#d1d1d1" r=".093" cy="68.299" cx="49.86" style="fill: rgb(209, 209, 209); animation-play-state: running; animation-delay: 0s;"></circle></g></g><g class="ldl-layer" style="animation-play-state: running; animation-delay: 0s;"><g class="ldl-ani" style="transform-origin: 50px 50px; transform: scale(0.91); animation: 0.675676s linear -0.591216s infinite normal forwards running breath-6f37c935-e482-4f7a-a840-1a6ff0867b7d;"><circle fill="#d1d1d1" r=".093" cy="81.556" cx="49.953" style="fill: rgb(209, 209, 209); animation-play-state: running; animation-delay: 0s;"></circle></g></g><g class="ldl-layer" style="animation-play-state: running; animation-delay: 0s;"><g class="ldl-ani" style="transform-origin: 50px 50px; transform: scale(0.91); animation: 0.675676s linear -0.675676s infinite normal forwards running breath-6f37c935-e482-4f7a-a840-1a6ff0867b7d;"><path fill="#454545" d="M61.393 20.925a2.35 2.35 0 0 1-2.344 2.344H39.591a2.35 2.35 0 0 1-2.344-2.344v-9.847a2.35 2.35 0 0 1 2.344-2.344h19.458a2.35 2.35 0 0 1 2.344 2.344v9.847zm-.747 5.809c-1.289 0-1.65.794-.801 1.766 0 0 2.955 3.382 2.955 6.791 0 6.269-5.89 11.37-13.128 11.37-7.239 0-13.128-5.1-13.128-11.37 0-3.41 2.955-6.791 2.955-6.791.848-.971.488-1.766-.802-1.766h-2.875c-1.29 0-2.794.955-3.343 2.121 0 0-1.562 3.317-1.562 6.436 0 9.372 8.413 16.996 18.755 16.996s18.755-7.625 18.755-16.996c0-3.119-1.562-6.436-1.562-6.436-.549-1.167-2.054-2.121-3.343-2.121h-2.876zm14.118 29.829c-1.943-2.684-3.885-3.705-5.455-4.529-1.818-.955-4.686-.777-6.373.395 0 0-7.132 4.956-13.759 4.956-6.375 0-13.225-4.532-13.225-4.532-1.713-1.133-4.572-1.223-6.352-.2-1.27.73-2.627 1.509-4.365 3.911-4.441 6.135 4.668 31.192 4.668 31.192.701 1.931 2.956 3.51 5.01 3.51h30.173c2.054 0 4.308-1.579 5.01-3.51 0 0 9.11-25.058 4.668-31.193zM49.86 64.471a3.828 3.828 0 1 1 0 7.656 3.828 3.828 0 0 1 0-7.656zm.093 20.913a3.828 3.828 0 1 1 0-7.656 3.828 3.828 0 0 1 0 7.656z" style="fill: rgb(69, 69, 69); animation-play-state: running; animation-delay: 0s;"></path></g></g><metadata xmlns:d="https://loading.io/stock/" style="animation-play-state: running; animation-delay: 0s;"><d:name style="animation-play-state: running; animation-delay: 0s;">hotel</d:name><d:tags style="animation-play-state: running; animation-delay: 0s;">bed,inn,resort,motel,hotel,map</d:tags><d:license style="animation-play-state: running; animation-delay: 0s;">free</d:license><d:slug style="animation-play-state: running; animation-delay: 0s;">aotfvz</d:slug></metadata></g></g><style id="breath-6f37c935-e482-4f7a-a840-1a6ff0867b7d" data-anikit="">@keyframes breath-6f37c935-e482-4f7a-a840-1a6ff0867b7d
{
  0% {
    animation-timing-function: cubic-bezier(0.9647,0.2413,-0.0705,0.7911);
    transform: scale(0.9099999999999999);
  }
  51% {
    animation-timing-function: cubic-bezier(0.9226,0.2631,-0.0308,0.7628);
    transform: scale(1.02994);
  }
  100% {
    transform: scale(0.9099999999999999);
  }
}</style><!-- [ldio] generated by https://loading.io/ --></svg>